Coordinates
version=1
nRows=21
nColumns=12
inDegrees=yes

Units are S.I. units (second, meters, Newtons, ...)
Angles are in degrees

endheader
time	SC_y	SC_z	SC_x	AC_y	AC_z	AC_x	GH_y	GH_z	GH_yy	EL_x	PS_y
       0.0              -23.24          5.482          80.33          39.42         -17.02         -3.769          10.74          54.37         -47.26          23.47          138.6
   0.02642              -23.24          5.482          80.33          39.43         -17.01         -3.769          10.71          54.37         -47.27          23.48          138.6
   0.05284              -23.25          5.482          80.32          39.43         -17.01         -3.768          10.68          54.38         -47.27          23.49          138.6
   0.07926              -23.25          5.482          80.32          39.43         -17.01         -3.767          10.65          54.38         -47.28           23.5          138.6
    0.1057              -23.25          5.482          80.32          39.43          -17.0         -3.766          10.62          54.38         -47.29          23.51          138.5
    0.1321              -23.26          5.482          80.32          39.43          -17.0         -3.765          10.58          54.39         -47.29          23.52          138.5
    0.1585              -23.26          5.483          80.31          39.43          -17.0         -3.764          10.54          54.39          -47.3          23.54          138.5
    0.1849              -23.27          5.483          80.31          39.44         -16.99         -3.762           10.5           54.4         -47.31          23.55          138.5
    0.2114              -23.28          5.483          80.31          39.44         -16.99         -3.761          10.46           54.4         -47.31          23.56          138.5
    0.2378              -23.28          5.483           80.3          39.44         -16.99          -3.76          10.42          54.41         -47.32          23.58          138.5
    0.2642              -23.29          5.483           80.3          39.44         -16.98         -3.758          10.37          54.42         -47.33           23.6          138.5
    0.2906               -23.3          5.483           80.3          39.45         -16.98         -3.756          10.31          54.42         -47.34          23.61          138.5
     0.317              -23.31          5.483          80.29          39.45         -16.97         -3.755          10.26          54.43         -47.35          23.63          138.5
    0.3434              -23.32          5.483          80.29          39.45         -16.96         -3.753           10.2          54.44         -47.37          23.65          138.4
    0.3699              -23.32          5.484          80.28          39.46         -16.96         -3.751          10.13          54.45         -47.38          23.68          138.4
    0.3963              -23.34          5.484          80.27          39.46         -16.95         -3.748          10.06          54.46         -47.39           23.7          138.4
    0.4227              -23.35          5.484          80.27          39.47         -16.94         -3.746          9.979          54.47         -47.41          23.73          138.4
    0.4491              -23.36          5.484          80.26          39.47         -16.93         -3.743          9.893          54.48         -47.42          23.76          138.4
    0.4755              -23.37          5.485          80.25          39.48         -16.92          -3.74            9.8          54.49         -47.44          23.79          138.3
     0.502              -23.39          5.485          80.25          39.48         -16.91         -3.737          9.697           54.5         -47.46          23.82          138.3
    0.5284               -23.4          5.485          80.24          39.49          -16.9         -3.734          9.585          54.52         -47.48          23.86          138.3
